<svg width="87" height="120" viewBox="0 0 87 120" fill="none" xmlns="http://www.w3.org/2000/svg">
<g clip-path="url(#clip0)">
<path d="M54.7 88.38H32.27V96.64H54.7V88.38Z" fill="#717EBA"/>
<path d="M52.49 78.69H44.42H34.27C34.27 78.69 34.73 90.19 32.5 93.53H43.5H54.5C52.26 90.19 52.49 78.69 52.49 78.69Z" fill="#F4B88E"/>
<path d="M34.04 87.38C36.63 89.06 40.53 89.9 43.64 89.93C47.05 89.96 50.05 89.07 52.94 87.85C52.4 83.53 52.5 78.69 52.5 78.69H34.27C34.27 78.69 34.45 83.19 34.04 87.38Z" fill="#F5DCD6"/>
<path d="M78.7 101.5L52.25 92.03H43.63H43.34H34.72L8.27 101.5C8.27 101.5 -0.990002 104.55 0.0899985 119.33H43.34H43.63H86.88C88.14 103.64 78.7 101.5 78.7 101.5Z" fill="#F4B88E"/>
<path d="M78.7 101.5L57.09 93.76L43.5 103.24L30.23 93.64L8.27 101.5C8.27 101.5 -0.990002 104.55 0.0899985 119.33H86.88C88.14 103.64 78.7 101.5 78.7 101.5Z" fill="#42A7D9"/>
<path d="M63.45 56.07C62.82 59.95 63.91 63.41 65.88 63.78C67.85 64.15 69.95 61.31 70.58 57.42C71.2 53.54 70.12 50.08 68.14 49.71C66.18 49.35 64.08 52.19 63.45 56.07Z" fill="#F4B88E"/>
<path d="M65.82 55.03C65.82 55.03 65.85 54.81 65.93 54.46C66 54.1 66.16 53.6 66.4 53.06C66.65 52.54 67.04 51.94 67.54 51.91C67.66 51.9 67.79 51.92 67.92 51.96C67.94 51.97 68.07 52.03 68.11 52.06C68.15 52.1 68.2 52.12 68.25 52.18C68.45 52.38 68.62 52.68 68.72 53.03C68.84 53.37 68.91 53.75 68.95 54.13C68.98 54.51 69.01 54.91 68.96 55.24C68.9 55.63 68.88 56.03 68.81 56.37C68.74 56.72 68.68 57.04 68.62 57.34C68.54 57.64 68.48 57.92 68.42 58.18C68.37 58.43 68.29 58.64 68.24 58.82C68.14 59.18 68.09 59.38 68.09 59.38C68.09 59.38 68.19 59.2 68.35 58.88C68.43 58.71 68.54 58.52 68.63 58.28C68.73 58.04 68.84 57.77 68.96 57.48C69.07 57.18 69.16 56.83 69.27 56.47C69.38 56.11 69.43 55.74 69.51 55.34C69.59 54.89 69.6 54.46 69.56 54.01C69.52 53.57 69.45 53.13 69.31 52.69C69.17 52.27 68.95 51.85 68.62 51.55C68.55 51.47 68.44 51.41 68.34 51.35C68.23 51.29 68.2 51.29 68.07 51.24C67.88 51.2 67.68 51.18 67.48 51.21C67.07 51.28 66.73 51.58 66.51 51.9C66.28 52.22 66.15 52.56 66.04 52.87C65.84 53.51 65.8 54.06 65.77 54.43C65.79 54.82 65.82 55.03 65.82 55.03Z" fill="#F2A57F"/>
<path d="M65.82 55.03C65.82 55.03 65.64 54.62 66.93 54.52C66.93 54.52 68.38 54.79 67.53 56.72C67.35 57.13 67.19 57.57 67.1 58.02C66.97 58.67 67.2 59.55 66.85 60.12C66.4 60.86 65.26 60.44 65.19 59.59C65.14 58.94 65.81 57.82 66.11 57.36C66.12 57.36 67.05 55.95 65.82 55.03Z" fill="#F2A57F"/>
<path d="M65.19 59.51C65.19 59.51 65.15 59.54 65.09 59.61C65.03 59.69 64.96 59.81 64.9 59.97C64.86 60.05 64.85 60.14 64.83 60.25C64.81 60.35 64.79 60.46 64.81 60.57C64.82 60.68 64.82 60.8 64.84 60.92C64.86 61.03 64.91 61.13 64.95 61.24C65 61.34 65.03 61.46 65.1 61.54C65.16 61.62 65.23 61.69 65.29 61.76C65.41 61.91 65.55 62 65.69 62.04C65.95 62.15 66.13 62.15 66.13 62.15C66.13 62.15 66.06 61.91 65.93 61.68C65.9 61.62 65.86 61.56 65.82 61.5C65.79 61.43 65.76 61.35 65.73 61.29C65.69 61.22 65.67 61.15 65.62 61.09C65.57 61.03 65.57 60.94 65.54 60.87C65.46 60.74 65.43 60.59 65.38 60.45C65.35 60.38 65.34 60.31 65.32 60.24C65.31 60.17 65.28 60.1 65.27 60.03C65.22 59.75 65.19 59.51 65.19 59.51Z" fill="#F2A57F"/>
<path d="M23.83 56.07C24.46 59.95 23.37 63.41 21.4 63.78C19.43 64.15 17.33 61.31 16.7 57.42C16.08 53.54 17.16 50.08 19.14 49.71C21.11 49.35 23.21 52.19 23.83 56.07Z" fill="#F4B88E"/>
<path d="M21.47 55.03C21.47 55.03 21.44 54.81 21.36 54.46C21.28 54.1 21.13 53.6 20.88 53.06C20.63 52.54 20.24 51.94 19.74 51.91C19.62 51.9 19.49 51.92 19.36 51.96C19.34 51.97 19.21 52.03 19.17 52.06C19.13 52.1 19.08 52.12 19.03 52.18C18.83 52.38 18.66 52.68 18.55 53.03C18.43 53.37 18.36 53.75 18.32 54.13C18.29 54.51 18.26 54.91 18.31 55.24C18.37 55.63 18.39 56.03 18.46 56.37C18.53 56.72 18.59 57.04 18.65 57.34C18.73 57.64 18.79 57.92 18.85 58.18C18.9 58.43 18.98 58.64 19.03 58.82C19.13 59.18 19.18 59.38 19.18 59.38C19.18 59.38 19.08 59.2 18.91 58.88C18.84 58.71 18.72 58.52 18.63 58.28C18.53 58.04 18.42 57.77 18.3 57.48C18.19 57.18 18.1 56.83 17.99 56.47C17.88 56.11 17.83 55.74 17.75 55.34C17.67 54.89 17.66 54.46 17.7 54.01C17.74 53.57 17.81 53.13 17.95 52.69C18.09 52.27 18.31 51.85 18.64 51.55C18.71 51.47 18.82 51.41 18.92 51.35C19.03 51.29 19.06 51.29 19.19 51.24C19.39 51.2 19.58 51.18 19.78 51.21C20.19 51.28 20.53 51.58 20.75 51.9C20.98 52.22 21.11 52.56 21.22 52.87C21.42 53.51 21.46 54.06 21.49 54.43C21.5 54.82 21.47 55.03 21.47 55.03Z" fill="#F2A57F"/>
<path d="M21.47 55.03C21.47 55.03 21.65 54.62 20.35 54.52C20.35 54.52 18.9 54.79 19.75 56.72C19.93 57.13 20.09 57.57 20.18 58.02C20.31 58.67 20.08 59.55 20.43 60.12C20.88 60.86 22.02 60.44 22.09 59.59C22.14 58.94 21.47 57.82 21.17 57.36C21.17 57.36 20.24 55.95 21.47 55.03Z" fill="#F2A57F"/>
<path d="M22.09 59.51C22.09 59.51 22.13 59.54 22.19 59.61C22.25 59.69 22.32 59.81 22.38 59.97C22.42 60.05 22.43 60.14 22.45 60.25C22.47 60.35 22.49 60.46 22.47 60.57C22.46 60.68 22.46 60.8 22.44 60.92C22.42 61.03 22.37 61.13 22.33 61.24C22.28 61.34 22.25 61.46 22.18 61.54C22.12 61.62 22.05 61.69 21.99 61.76C21.87 61.91 21.73 62 21.59 62.04C21.33 62.15 21.15 62.15 21.15 62.15C21.15 62.15 21.22 61.91 21.35 61.68C21.38 61.62 21.42 61.56 21.46 61.5C21.49 61.43 21.51 61.35 21.55 61.29C21.58 61.22 21.61 61.15 21.66 61.09C21.71 61.03 21.72 60.94 21.74 60.87C21.82 60.74 21.85 60.59 21.9 60.45C21.93 60.38 21.94 60.31 21.96 60.24C21.97 60.17 22 60.1 22.01 60.03C22.07 59.75 22.09 59.51 22.09 59.51Z" fill="#F2A57F"/>
<path d="M43.88 14.17C43.78 14.16 43.67 14.17 43.57 14.17C43.46 14.17 43.36 14.17 43.26 14.17C27.6 14.31 18.81 18.77 21.21 47.31L23.9 70.04C23.9 70.04 24.38 74.19 28.93 76.67L37.43 82.97C37.43 82.97 41.47 84.76 43.57 84.59C45.66 84.77 49.7 82.97 49.7 82.97L58.2 76.67C62.75 74.19 63.23 70.04 63.23 70.04L66.07 47.83C68.48 19.29 59.54 14.31 43.88 14.17Z" fill="#F4B88E"/>
<path d="M62.29 56.07C61.74 58.49 61.35 62.36 59.78 64.44C58.66 65.92 57.06 66.68 55.21 66.78C53.96 66.85 52.7 66.74 51.46 66.52C50.5 66.35 49.6 65.87 48.61 65.85C47.5 65.82 46.75 66.21 45.8 66.72C44.62 67.36 43.57 67.3 42.28 66.9C40.45 66.33 38.78 65.64 36.82 65.71C34.66 65.79 32.19 66.36 30.07 65.71C27.81 65.02 26.63 63.05 25.74 60.98C25.26 59.86 24.92 57.23 24.58 56.07C24.16 54.63 23.5 55.62 22.19 55.6L23.9 71.65C23.9 71.65 24.38 75.8 28.93 78.28L37.43 84.58C37.43 84.58 41.47 86.38 43.57 86.2C45.66 86.38 49.7 84.58 49.7 84.58L58.2 78.27C62.75 75.79 63.23 71.64 63.23 71.64L65.11 55.31C63.64 55.29 62.68 54.39 62.29 56.07Z" fill="#472009"/>
<path d="M32.04 49.17C32.05 50.65 32.88 51.85 33.9 51.84C34.92 51.83 35.74 50.63 35.73 49.14C35.72 47.66 34.89 46.46 33.87 46.47C32.85 46.48 32.03 47.69 32.04 49.17Z" fill="#2F1807"/>
<path d="M33.15 48.32C33.15 48.76 32.79 49.12 32.35 49.12C31.91 49.12 31.55 48.76 31.55 48.32C31.55 47.88 31.91 47.52 32.35 47.52C32.79 47.52 33.15 47.88 33.15 48.32Z" fill="white"/>
<path d="M55.25 49.17C55.24 50.65 54.41 51.85 53.39 51.84C52.37 51.83 51.55 50.63 51.56 49.14C51.57 47.66 52.4 46.46 53.42 46.47C54.44 46.48 55.26 47.69 55.25 49.17Z" fill="#2F1807"/>
<path d="M54.14 48.32C54.14 48.76 54.5 49.12 54.94 49.12C55.38 49.12 55.74 48.76 55.74 48.32C55.74 47.88 55.38 47.52 54.94 47.52C54.49 47.52 54.14 47.88 54.14 48.32Z" fill="white"/>
<path d="M46.35 63.61C45.93 64.01 45.42 64.34 44.87 64.59C44.32 64.84 43.72 65.01 43.1 65.07C42.79 65.12 42.47 65.12 42.15 65.11C41.83 65.07 41.51 65.06 41.19 64.97C40.87 64.91 40.56 64.81 40.26 64.68C39.95 64.57 39.67 64.4 39.38 64.25L39.01 64.06L38.93 63.44C38.89 63.17 38.87 62.92 38.86 62.67C38.84 62.42 38.86 62.17 38.86 61.92C38.89 61.42 38.95 60.93 39.06 60.44C39.17 59.95 39.33 59.47 39.56 59C39.76 58.53 40.06 58.08 40.43 57.66C40.65 58.19 40.76 58.69 40.85 59.17C40.95 59.66 40.99 60.13 41.03 60.61C41.05 61.08 41.06 61.55 41.04 62.01L41 62.73C40.98 62.96 40.96 63.2 40.93 63.4L40.48 62.6C40.68 62.72 40.86 62.89 41.07 62.99C41.28 63.1 41.48 63.23 41.7 63.31C41.92 63.42 42.15 63.48 42.38 63.56C42.62 63.61 42.86 63.69 43.11 63.72C43.36 63.77 43.62 63.79 43.88 63.8C44.14 63.82 44.41 63.82 44.68 63.81C45.23 63.8 45.78 63.74 46.35 63.61Z" fill="#EBA17D"/>
<path d="M37.74 43.7C37.57 44.39 36.91 44.8 36.28 44.69C33.72 44.22 31.15 44.46 28.83 45.31C28.26 45.52 27.56 45.21 27.24 44.58C26.92 43.95 27.19 43.18 27.89 42.92C30.63 41.9 33.66 41.61 36.66 42.14C37.42 42.28 37.91 43.01 37.74 43.7Z" fill="#472009"/>
<path d="M48.84 43.7C49.01 44.39 49.67 44.8 50.3 44.69C52.86 44.22 55.43 44.46 57.75 45.31C58.32 45.52 59.02 45.21 59.34 44.58C59.66 43.95 59.39 43.18 58.69 42.92C55.95 41.9 52.92 41.61 49.92 42.14C49.15 42.28 48.66 43.01 48.84 43.7Z" fill="#472009"/>
<path d="M44.41 73.63C44.41 73.63 43.48 73.92 42.21 73.67" stroke="#E89780" stroke-miterlimit="10" stroke-linecap="round" stroke-linejoin="round"/>
<path d="M38.35 69.08L39.63 71.6C39.63 71.6 45.35 74.81 49.39 69.21C49.38 69.2 43.11 69.49 38.35 69.08Z" fill="white"/>
<path d="M32.5 20.73C32.5 20.73 38.35 27.8 51.56 29.67C51.56 29.67 64.99 34.31 64.81 41.88L62.44 55.61L65.12 55.33C65.12 55.33 65.19 49.8 68.14 49.72C68.14 49.72 70.79 38.61 70.75 36.71C70.71 34.81 67.01 15.98 67.01 15.98L52.62 5.71C52.62 5.71 37.05 3.43 29.82 0C29.82 0 31.47 4.38 33.88 5.71C33.88 5.71 24.85 6.66 24.01 6.47C23.17 6.28 25.26 11.23 25.26 11.23L17.68 22.83L19.14 49.72C19.14 49.72 21.48 49.95 22.19 55.61H24.39L24.01 38.35C24.01 38.35 27.11 27.67 32.5 20.73Z" fill="#472009"/>
<path d="M31.9 20.1C29.38 17.55 26.81 14.64 25.17 11.34L17.67 22.82V22.89C20.14 26.86 22.62 30.83 25.22 34.71C26.59 30.97 29.08 25.11 32.48 20.73C32.48 20.73 33.24 21.65 34.83 22.91C33.84 22 32.86 21.07 31.9 20.1Z" fill="#341000"/>
<path d="M43.49 103.19L41.71 94.09L32.27 88.38L30.9 94.12L43.49 103.19Z" fill="#717EBA"/>
<path d="M43.49 103.19L45.27 94.09L54.71 88.38L56.08 94.12L43.49 103.19Z" fill="#717EBA"/>
<path d="M48 95.32H43.79H43.21H39C39 95.32 36.99 96.54 37.85 98.66L40.72 103.2H42.87H44.15H46.3L49.17 98.66C50.01 96.54 48 95.32 48 95.32Z" fill="#6A54A1"/>
<path d="M48.61 95.84C48.79 96.68 48.75 97.59 48.43 98.52C47.78 100.4 46.43 101.86 44.43 102.22C42.63 102.54 40.85 101.72 40.31 99.92C39.83 98.32 39.57 96.51 40.59 95.32H38.99C38.99 95.32 36.98 96.54 37.84 98.66L40.71 103.2H46.29L49.16 98.66C49.68 97.35 49.12 96.39 48.61 95.84Z" fill="#6A54A1"/>
<path d="M40.7 103.19L37.62 119.33H49.37L46.28 103.19H40.7Z" fill="#6A54A1"/>
<path d="M41.71 94.09L37.25 102.26L26.34 94.85L32.27 88.38L41.71 94.09Z" fill="#86B4DB"/>
<path d="M45.27 94.09L49.73 102.26L60.64 94.85L54.71 88.38L45.27 94.09Z" fill="#86B4DB"/>
</g>
<defs>
<clipPath id="clip0">
<rect width="86.99" height="119.33" fill="white"/>
</clipPath>
</defs>
</svg>
