<svg width="66" height="98" viewBox="0 0 66 98" fill="none" xmlns="http://www.w3.org/2000/svg">
<path d="M40.1139 63.1558H33.7286H25.704C25.704 63.1558 26.0683 74.0689 24.3042 77.2357H33H41.6958C39.9317 74.0689 40.1139 63.1558 40.1139 63.1558Z" fill="#F4B88E"/>
<path d="M25.6273 69.8591C28.3117 71.1107 31.0154 72.3053 34.0834 72.0209C36.2597 71.8123 38.369 71.1581 40.3152 70.1815C40.0564 66.607 40.1139 63.1558 40.1139 63.1558H25.704C25.704 63.1558 25.819 66.3984 25.6273 69.8591Z" fill="#F5DCD6"/>
<path d="M59.7106 83.4176L39.6441 75.6712H33.1055H32.8849H26.3463L6.27019 83.4176C6.27019 83.4176 -0.75741 85.9112 0.0671107 97.9905H32.8754H33.0959H65.9041C66.8725 85.1716 59.7106 83.4176 59.7106 83.4176Z" fill="#F4B88E"/>
<path d="M51.1011 42.4199C50.5067 46.0418 51.5421 49.256 53.3925 49.6068C55.2525 49.9576 57.2371 47.3028 57.8219 43.6809C58.4067 40.059 57.3809 36.8448 55.5209 36.494C53.6705 36.1432 51.6859 38.798 51.1011 42.4199Z" fill="#F4B88E"/>
<path d="M53.335 41.4433C53.335 41.4433 53.3637 41.2442 53.4404 40.9123C53.5076 40.5805 53.661 40.1064 53.8911 39.6134C54.1212 39.1298 54.4951 38.5704 54.9744 38.542C55.0895 38.5325 55.2141 38.5515 55.3292 38.5894C55.3483 38.5989 55.473 38.6558 55.5113 38.6842C55.5497 38.7221 55.5976 38.7411 55.6456 38.7885C55.8373 38.9687 55.9907 39.2531 56.0962 39.5755C56.2112 39.8978 56.2783 40.2486 56.3167 40.5995C56.3454 40.9503 56.3742 41.32 56.3263 41.6424C56.2687 42.0027 56.2496 42.382 56.1825 42.6948C56.1153 43.0172 56.0578 43.3206 56.0003 43.6051C55.9236 43.8895 55.8661 44.155 55.8181 44.3825C55.7702 44.6196 55.6935 44.8187 55.6551 44.9799C55.5593 45.3117 55.5113 45.5014 55.5113 45.5014C55.5113 45.5014 55.6072 45.3402 55.7606 45.0368C55.8277 44.8851 55.9428 44.7049 56.0291 44.4774C56.1249 44.2593 56.2304 44.0033 56.3359 43.7283C56.4413 43.4439 56.5276 43.1215 56.6331 42.7802C56.7385 42.4389 56.7865 42.0975 56.8536 41.7277C56.9207 41.3106 56.9303 40.9029 56.9015 40.4857C56.8632 40.078 56.796 39.6608 56.6618 39.2626C56.5276 38.8738 56.3167 38.4851 56.0099 38.2007C55.9428 38.1343 55.8373 38.0679 55.7414 38.011C55.636 37.9541 55.6072 37.9541 55.4826 37.9067C55.3004 37.8688 55.1087 37.8498 54.9265 37.8783C54.543 37.9352 54.2266 38.2196 54.0157 38.5135C53.8048 38.8075 53.6705 39.1298 53.5747 39.4238C53.3829 40.0211 53.3446 40.5331 53.3254 40.8839C53.3062 41.2442 53.335 41.4433 53.335 41.4433Z" fill="#F2A57F"/>
<path d="M53.335 41.4433C53.335 41.4433 53.1624 41.0546 54.3896 40.9692C54.3896 40.9692 55.7606 41.2157 54.9553 43.0172C54.7827 43.406 54.6293 43.8042 54.543 44.2308C54.4184 44.8377 54.6389 45.6531 54.3129 46.1935C53.8911 46.8856 52.8077 46.4874 52.7501 45.7005C52.7022 45.0937 53.335 44.0507 53.6226 43.624C53.613 43.6145 54.4951 42.3061 53.335 41.4433Z" fill="#F2A57F"/>
<path d="M52.7406 45.6246C52.7406 45.6246 52.7022 45.6531 52.6447 45.7194C52.5872 45.7858 52.52 45.9091 52.4625 46.0608C52.4242 46.1366 52.4146 46.2219 52.3954 46.3168C52.3762 46.4116 52.3571 46.5159 52.3762 46.6202C52.3858 46.7245 52.3858 46.8382 52.405 46.9425C52.4242 47.0468 52.4721 47.1416 52.5009 47.2459C52.5488 47.3408 52.5776 47.445 52.6351 47.5209C52.6926 47.5967 52.7597 47.6631 52.8173 47.7295C52.9323 47.8717 53.0665 47.957 53.1912 47.995C53.4309 48.0993 53.6034 48.0993 53.6034 48.0993C53.6034 48.0993 53.5363 47.8812 53.4117 47.6631C53.3829 47.6062 53.3542 47.5493 53.3062 47.4925C53.2775 47.4261 53.2583 47.3502 53.2199 47.2933C53.1912 47.227 53.1624 47.1606 53.1241 47.1037C53.0857 47.0468 53.0761 46.9615 53.0474 46.9046C52.9802 46.7813 52.9419 46.6391 52.894 46.5064C52.8652 46.44 52.8556 46.3736 52.846 46.3073C52.8364 46.2409 52.8077 46.1745 52.7981 46.1082C52.7693 45.8427 52.7406 45.6151 52.7406 45.6246Z" fill="#F2A57F"/>
<path d="M15.7426 42.4199C16.337 46.0418 15.3016 49.256 13.4512 49.6068C11.5912 49.9576 9.61621 47.3028 9.02179 43.6809C8.43695 40.059 9.46281 36.8448 11.3228 36.494C13.1732 36.1432 15.1578 38.798 15.7426 42.4199Z" fill="#F4B88E"/>
<path d="M13.5087 41.4433C13.5087 41.4433 13.48 41.2442 13.4033 40.9123C13.3361 40.5805 13.1827 40.1064 12.9526 39.6134C12.7225 39.1298 12.3486 38.5704 11.8693 38.542C11.7542 38.5325 11.6296 38.5515 11.5145 38.5894C11.4954 38.5989 11.3707 38.6558 11.3324 38.6842C11.294 38.7221 11.2461 38.7411 11.1981 38.7885C11.0064 38.9687 10.853 39.2531 10.7475 39.5755C10.6325 39.8978 10.5654 40.2486 10.527 40.5995C10.4983 40.9503 10.4791 41.32 10.5174 41.6424C10.575 42.0027 10.5941 42.382 10.6612 42.6948C10.7284 43.0172 10.7859 43.3206 10.8338 43.6051C10.9105 43.8895 10.968 44.155 11.016 44.3825C11.0639 44.6196 11.1406 44.8187 11.179 44.9799C11.2748 45.3117 11.3228 45.5014 11.3228 45.5014C11.3228 45.5014 11.2269 45.3402 11.0735 45.0368C10.9968 44.8851 10.8913 44.7049 10.8051 44.4774C10.7092 44.2593 10.6037 44.0033 10.4983 43.7283C10.3928 43.4439 10.3065 43.1215 10.201 42.7802C10.0956 42.4389 10.0476 42.0975 9.98053 41.7277C9.91342 41.3106 9.89425 40.9029 9.9326 40.4857C9.97095 40.078 10.0381 39.6608 10.1723 39.2626C10.3065 38.8738 10.5174 38.4851 10.8146 38.2007C10.8818 38.1343 10.9872 38.0679 11.0831 38.011C11.1886 37.9541 11.2173 37.9541 11.342 37.9067C11.5241 37.8688 11.7159 37.8498 11.898 37.8783C12.2815 37.9352 12.5979 38.2196 12.8088 38.5135C13.0198 38.8075 13.154 39.1298 13.2499 39.4238C13.4416 40.0211 13.48 40.5331 13.4991 40.8839C13.5375 41.2442 13.5087 41.4433 13.5087 41.4433Z" fill="#F2A57F"/>
<path d="M13.5087 41.4433C13.5087 41.4433 13.6813 41.0546 12.4541 40.9692C12.4541 40.9692 11.0927 41.2157 11.8884 43.0172C12.061 43.406 12.2144 43.8042 12.3007 44.2308C12.4253 44.8377 12.2048 45.6531 12.5308 46.1935C12.9526 46.8856 14.0264 46.4874 14.0935 45.7005C14.1415 45.0937 13.5087 44.0507 13.2211 43.624C13.2307 43.6145 12.3486 42.3061 13.5087 41.4433Z" fill="#F2A57F"/>
<path d="M14.0935 45.6246C14.0935 45.6246 14.1319 45.6531 14.1894 45.7194C14.2469 45.7858 14.3141 45.9091 14.3716 46.0608C14.4099 46.1366 14.4195 46.2219 14.4387 46.3168C14.4579 46.4116 14.477 46.5159 14.4579 46.6202C14.4483 46.7245 14.4483 46.8382 14.4291 46.9425C14.4099 47.0468 14.362 47.1416 14.3236 47.2459C14.2757 47.3408 14.2469 47.445 14.1894 47.5209C14.1319 47.5967 14.0648 47.6631 14.0073 47.7295C13.8922 47.8717 13.758 47.957 13.6334 47.995C13.3937 48.0993 13.2115 48.0993 13.2115 48.0993C13.2115 48.0993 13.2786 47.8812 13.4033 47.6631C13.432 47.6062 13.4608 47.5493 13.5087 47.4925C13.5375 47.4261 13.5567 47.3502 13.595 47.2933C13.6238 47.227 13.6525 47.1606 13.7005 47.1037C13.7388 47.0468 13.7484 46.9615 13.7772 46.9046C13.8443 46.7813 13.8826 46.6391 13.921 46.5064C13.9497 46.44 13.9593 46.3736 13.9785 46.3073C13.9881 46.2409 14.0168 46.1745 14.0264 46.1082C14.0744 45.8427 14.0935 45.6151 14.0935 45.6246Z" fill="#F2A57F"/>
<path d="M51.6859 12.999C51.6859 12.999 45.3678 6.15344 32.9233 5.77419C20.498 6.41892 14.199 13.5015 14.199 13.5015C10.8146 24.2724 12.9814 36.9112 14.4195 47.8433C15.4837 55.9119 20.9678 61.5629 27.8899 65.4977C27.8899 65.4977 30.3347 67.0621 33.5944 67.2423C36.835 66.9957 39.251 65.3839 39.2606 65.3744C45.9814 60.8707 51.1299 55.2957 52.4146 47.0942C53.5267 40.0116 53.776 32.1799 53.5267 25.031C53.3829 21.0867 52.9515 16.7632 51.6859 12.999Z" fill="#F4B88E"/>
<path d="M27.516 35.0433C27.516 35.0433 23.0674 33.5642 18.475 35.6502C19.3762 30.7957 27.8707 32.7868 27.8707 32.7868C27.8707 32.7868 28.4268 32.9195 28.3693 33.7823C28.3789 33.7918 28.1488 35.2804 27.516 35.0433Z" fill="#9E715E"/>
<path d="M37.8704 35.0433C37.8704 35.0433 42.923 33.5642 47.5154 35.6502C46.6142 30.7957 37.5061 32.7868 37.5061 32.7868C37.5061 32.7868 36.95 32.9195 37.0076 33.7823C37.0171 33.7918 37.2377 35.2804 37.8704 35.0433Z" fill="#9E715E"/>
<path d="M21.8786 39.5565C21.8881 40.9597 22.6839 42.0975 23.6618 42.088C24.6397 42.088 25.4259 40.9408 25.4163 39.5281C25.4067 38.1248 24.611 36.987 23.6331 36.987C22.6551 37.006 21.869 38.1532 21.8786 39.5565Z" fill="#2F1807"/>
<path d="M22.9428 38.7506C22.9428 39.1678 22.5976 39.5091 22.1758 39.5091C21.7539 39.5091 21.4088 39.1678 21.4088 38.7506C21.4088 38.3334 21.7539 37.9921 22.1758 37.9921C22.5976 37.9921 22.9428 38.3334 22.9428 38.7506Z" fill="white"/>
<path d="M44.1214 39.5565C44.1119 40.9597 43.3161 42.0975 42.3382 42.088C41.3603 42.088 40.5741 40.9408 40.5837 39.5281C40.5933 38.1248 41.389 36.987 42.3669 36.987C43.3449 37.006 44.131 38.1532 44.1214 39.5565Z" fill="#2F1807"/>
<path d="M43.0572 38.7506C43.0572 39.1678 43.4024 39.5091 43.8242 39.5091C44.2461 39.5091 44.5912 39.1678 44.5912 38.7506C44.5912 38.3334 44.2461 37.9921 43.8242 37.9921C43.4024 37.9921 43.0572 38.3334 43.0572 38.7506Z" fill="white"/>
<path d="M28.5802 55.4189C28.5898 56.7748 30.536 57.8841 32.9425 57.8841C35.3489 57.8841 37.2952 56.7842 37.3048 55.4189H28.5802Z" fill="white"/>
<path d="M37.2956 55.6275C38.3215 55.381 38.4844 55.2767 38.4844 55.2767C38.4844 55.2767 37.775 54.9828 36.7683 54.6794C34.1988 53.608 34.3714 54.9923 33.01 54.9923C32.3293 55.0112 31.639 54.2717 30.9966 54.3665C30.3543 54.4423 29.7599 54.5561 29.2421 54.6889C28.2163 54.9354 27.526 55.2767 27.526 55.2767C27.526 55.2767 27.5356 55.4379 28.5614 55.6844C28.5614 55.6844 30.5748 55.3715 31.8307 55.5611C31.8307 55.5611 32.9908 55.8456 33.777 55.6086C33.7962 55.618 35.9054 55.5043 37.2956 55.6275Z" fill="#F37D7F"/>
<path d="M37.6307 55.2767C36.6241 56.3007 35.5311 57.8841 32.7028 57.8746C32.7028 57.8746 29.4526 58.0263 28.3884 55.2767H27.516C27.5447 55.3431 27.5639 55.4094 27.6023 55.4853C27.8228 55.874 28.0145 56.3386 28.3405 56.7558C28.5035 56.9644 28.6665 57.1919 28.839 57.41C29.0116 57.6376 29.2513 57.8177 29.4622 58.0263L29.7978 58.3297L30.1909 58.5857C30.4689 58.7564 30.6894 58.9555 31.0537 59.0598C31.3797 59.1736 31.7536 59.3253 32.0508 59.3727L32.4823 59.4296L32.6932 59.458L32.7987 59.477L32.8562 59.4865L33 59.4959L34.0163 59.3727C34.3518 59.3063 34.649 59.1641 34.9654 59.0598C35.2914 58.965 35.5407 58.7564 35.8091 58.5952L36.2022 58.3392L36.5378 58.0358C36.7487 57.8272 36.9884 57.6471 37.161 57.4195C37.3335 57.2014 37.4965 56.9739 37.6595 56.7653C37.9951 56.3481 38.1772 55.8835 38.3977 55.4853C38.4361 55.4189 38.4553 55.3526 38.484 55.2862H37.6307V55.2767Z" fill="#F37D7F"/>
<path d="M33.0384 58.9176C36.5761 58.3961 37.0651 56.2912 37.0651 56.2912C35.6174 58.3961 32.9904 58.3392 32.9904 58.3392C32.9904 58.3392 32.7603 58.3771 32.7795 58.671C32.7795 58.6616 32.8562 58.9365 33.0384 58.9176Z" fill="white"/>
<path d="M58.5601 28.9183C58.5601 28.9183 60.0174 4.6933 39.7304 0.28444C39.7304 0.28444 24.3138 -2.15229 18.523 7.31018L30.4881 16.8769C30.4881 16.8769 36.4227 27.8849 48.3687 32.0567C48.3687 32.0567 53.3158 33.3082 53.6226 42.4389C53.6226 42.4389 54.3225 37.4232 57.17 37.8688C57.17 37.8688 58.6081 31.6205 58.5601 28.9183Z" fill="#9E715E"/>
<path d="M30.4881 49.1612C30.4881 49.1612 30.5169 49.1517 30.584 49.1422C30.6415 49.1327 30.7374 49.0948 30.8332 49.0853C31.0442 49.0379 31.3222 48.9905 31.6194 48.9336C31.9166 48.8957 32.2426 48.8483 32.559 48.8293C32.8754 48.8009 33.1917 48.8009 33.489 48.8009C33.7958 48.8104 34.093 48.8293 34.3902 48.8578C34.5436 48.8862 34.6874 48.8862 34.8408 48.9052C34.9942 48.9336 35.138 48.9526 35.2818 48.9621C35.4256 48.9716 35.579 49.019 35.7037 49.0284C35.8283 49.0379 35.9529 49.0569 36.0584 49.0759C36.1639 49.0853 36.2597 49.1138 36.3173 49.1233C36.3844 49.1327 36.4131 49.1422 36.4131 49.1422C36.4131 49.1422 36.4035 49.1707 36.3844 49.237C36.3652 49.2939 36.346 49.3887 36.2981 49.4836C36.2214 49.6921 36.068 49.9766 35.8187 50.2421C35.6941 50.3843 35.5503 50.517 35.3777 50.6308C35.2051 50.7446 35.0134 50.8678 34.8024 50.9437C34.5915 51.029 34.3614 51.1144 34.1313 51.1428C33.8916 51.1902 33.6519 51.2092 33.4123 51.1997C33.1726 51.1997 32.9425 51.1523 32.7124 51.1144C32.4823 51.067 32.2714 50.9911 32.07 50.8963C31.6673 50.7161 31.3414 50.4791 31.0921 50.2136C30.8428 49.9576 30.6798 49.6921 30.5936 49.4836C30.5456 49.3887 30.5169 49.2939 30.4977 49.237C30.4977 49.1896 30.4881 49.1612 30.4881 49.1612Z" fill="#F5A586"/>
<path d="M41.6958 76.4677L59.0491 83.171C54.4088 86.5749 54.0349 92.3017 54.0924 98H11.4954C11.5529 96.4545 11.4954 94.928 11.3899 93.5532C11.1214 90.0166 10.1339 85.1527 6.73039 83.2469L24.6781 76.316C24.6781 76.316 25.2438 81.8436 33.0192 81.8152C33.0096 81.8057 41.2356 81.9669 41.6958 76.4677Z" fill="#466DB0"/>
<path d="M16.2411 31.4688C13.4991 33.441 14.0936 38.2196 14.1031 42.4957C14.1031 42.4957 13.5279 36.4561 9.94218 37.2715C9.94218 37.2715 3.04881 10.9985 20.2583 5.76471L31.8591 16.4029C31.8495 16.4123 30.4881 21.2194 16.2411 31.4688Z" fill="#9E715E"/>
<path d="M8.84922 21.2194C8.84922 21.2194 -2.07089 70.2573 19.079 77.2357C19.079 77.2357 18.5134 69.423 25.7135 67.2423L25.7231 64.1703C25.7231 64.1703 19.894 59.9036 19.2133 58.5288C19.2133 58.5288 15.3016 54.7837 14.4099 47.8338C14.4099 47.8338 13.6238 37.9067 14.525 34.0099L8.84922 21.2194Z" fill="#9E715E"/>
<path d="M57.1891 21.2194C57.1891 21.2194 68.1092 70.2573 46.9593 77.2357C46.9593 77.2357 47.525 69.423 40.3248 67.2423L40.3152 64.1703C40.3152 64.1703 46.1444 59.9036 46.8251 58.5288C46.8251 58.5288 50.7368 54.7837 51.6284 47.8338C51.6284 47.8338 52.4146 37.9067 51.5134 34.0099L57.1891 21.2194Z" fill="#9E715E"/>
</svg>
